<svg version="1.2" xmlns="http://www.w3.org/2000/svg" viewBox="0 0 1800 600" width="1800" height="600">
	<title>ether</title>
	<defs>
		<linearGradient id="g1" x2="1" gradientUnits="userSpaceOnUse" gradientTransform="matrix(236.736,-325.84,330.746,240.301,246.384,384.855)">
			<stop offset="0" stop-color="#3525af"/>
			<stop offset="1" stop-color="#c46bd6"/>
		</linearGradient>
		<linearGradient id="g2" x2="1" gradientUnits="userSpaceOnUse" gradientTransform="matrix(-62.69,182.066,-299.66,-103.181,390.074,359.471)">
			<stop offset="0" stop-color="#2e3192"/>
			<stop offset=".009" stop-color="#2e3192"/>
			<stop offset="1" stop-color="#0095da"/>
		</linearGradient>
	</defs>
	<style>
		.s0 { fill: #f2f2f2 } 
		.s1 { fill: #f2f2f2 } 
		.s2 { fill: url(#g1) } 
		.s3 { fill: url(#g2) } 
		.s4 { fill: #0c7ac6 } 
	</style>
	<path id="ETHER" class="s0" aria-label="ETHER"  d="m795.9 174h122.7v-30h-122.7c-24.9 0-45.1 20.4-45.1 45.4v77.2c0 25 20.2 45.4 45.1 45.4h122.7v-30h-122.7c-8.4 0-15.3-7-15.3-15.4v-31.6h108v-30h-108v-15.6c0-8.4 6.9-15.4 15.3-15.4zm146.7-29.8v30h68.9v138h30v-138h68.8v-30zm330-0.2v61h-108v-61h-30v168h30v-77h108v77h30v-168zm99.4 30h122.6v-30h-122.6c-25 0-45.1 20.4-45.1 45.4v77.2c0 25 20.1 45.4 45.1 45.4h122.6v-30h-122.6c-8.4 0-15.4-7-15.4-15.4v-31.6h108v-30h-108v-15.6c0-8.4 7-15.4 15.4-15.4zm258.2 60.5c0 0 0 0 0 0 4.6-0.5 8.9-1.7 13-3.6 15.6-7.2 26.4-23.1 26.4-41.3 0-12.5-5-23.8-13.2-32.2-8.2-8.1-19.4-13.2-31.9-13.2h-106.1v168h30v-77.2h30c10.8 0 20.2 5.7 25.4 14.4l0.8 1.4 16 31.4 15.4 30h33.6l-15.4-30zm-81.8-29.2v-31h76.1c5.3 0 8.9 2.4 10.8 4.3 1.7 1.7 4.5 5.5 4.5 11.1 0 6-3.6 11.5-9.1 13.9-1.9 0.9-4.1 1.4-6.2 1.4z"/>
	<path id="TECHNOLOGIES" class="s1" aria-label="TECHNOLOGIES"  d="m754.4 365.2h47.4q0.8 0 1.3 0.5 0.6 0.4 0.6 1.3v1.7q0 0.8-0.5 1.4-0.5 0.5-1.4 0.5h-20.7v65.6q0 1.8-1.8 1.8h-1.8q-1.8 0-1.8-1.8v-65.6h-21.3q-1.8 0-1.8-1.9v-1.7q0-1.8 1.8-1.8zm73.9 0h47.3q1.9 0 1.9 1.8v1.8q0 0.8-0.5 1.3-0.5 0.5-1.4 0.5h-43.7v36.5h35.3q0.9 0 1.4 0.5 0.5 0.4 0.5 1.4v1.8q0 0.8-0.5 1.3-0.5 0.5-1.4 0.5h-35.3v20.1h44.5q1.9 0 1.9 1.8v1.7q0 1.8-1.9 1.8h-48.3q-0.9 0-1.2-0.4-0.4-0.5-0.4-1.3v-69.3q0-1.1 0.5-1.4 0.6-0.4 1.3-0.4zm131.5 7.2q0.8 0.6 0.8 1.4 0 0.4-0.5 1-0.1 0.1-0.3 0.5-0.3 0.4-0.6 0.8-0.4 0.4-0.8 0.7-0.4 0.4-0.7 0.4h-0.1-0.1q-0.2 0-0.4-0.1-0.3-0.1-0.6-0.3-4.2-3.2-9.1-5-4.8-1.9-10.2-1.9-4.6 0-8.7 1.2-4.1 1.1-7.8 3.2-3.5 2.1-6.5 5-2.9 3-5 6.6-2 3.5-3.2 7.6-1.1 4-1.1 8.3 0 4.4 1.1 8.5 1.2 4 3.3 7.5 2.1 3.5 5 6.4 3 2.9 6.5 5 3.5 2 7.5 3.2 4 1.1 8.3 1.1 10.1 0 19.3-6.6l1.2-0.7q0.5-0.3 0.8-0.3 0.4 0 0.8 0.4 0.5 0.4 0.9 1 0.5 0.6 0.8 1.2 0.3 0.6 0.3 1.1 0 0.5-0.3 0.8-0.2 0.3-0.6 0.6-4.9 3.8-10.6 5.9-5.8 2.1-12.5 2.1-7.7 0-14.5-2.9-6.8-3-11.9-8-5-5.1-7.9-11.9-2.9-6.8-2.9-14.5 0-5.2 1.3-9.9 1.3-4.8 3.7-8.9 2.5-4.1 5.8-7.6 3.5-3.4 7.6-5.8 4.2-2.5 8.9-3.8 4.8-1.3 10-1.3 6.5 0 12.3 2.1 5.8 2.2 10.7 5.9zm78.9 34.7v-40.1q0-0.8 0.5-1.3 0.4-0.5 1.3-0.5h1.7q0.8 0 1.4 0.5 0.5 0.5 0.5 1.3v69.2q0 1.8-1.9 1.8h-1.7q-1.8 0-1.8-1.8v-23.6h-48.4v23.6q0 1.8-1.8 1.8h-1.8q-1.7 0-1.7-1.8v-69.2q0-0.8 0.4-1.3 0.5-0.5 1.3-0.5h1.8q0.8 0 1.3 0.5 0.5 0.5 0.5 1.3v40.1zm91.5 32.2l-52.1-63.7v60.6q0 1.8-1.8 1.8h-1.7q-1.8 0-1.8-1.8v-71q0-0.5 0.2-1 0.2-0.6 1-0.6 0.7 0 1.3 0.5 13.1 16 26.1 31.9 13 15.8 26.2 31.9v-60.9q0-1.8 1.8-1.8h1.7q1.8 0 1.8 1.8v71.4q-0.1 0.5-0.3 1-0.2 0.5-1.1 0.5-0.8 0-1.3-0.6zm27.3-37.6q0-5.2 1.3-9.9 1.3-4.8 3.7-8.9 2.5-4.2 5.9-7.6 3.4-3.4 7.5-5.8 4.2-2.5 8.9-3.8 4.8-1.3 10-1.3 5.1 0 9.9 1.3 4.8 1.3 8.9 3.8 4.2 2.4 7.5 5.8 3.5 3.4 5.9 7.6 2.4 4.1 3.7 8.9 1.4 4.7 1.4 9.9 0 5.1-1.4 9.9-1.3 4.7-3.7 8.9-2.4 4.1-5.9 7.6-3.3 3.3-7.5 5.8-4.1 2.4-8.9 3.7-4.8 1.3-9.9 1.3-5.2 0-10-1.3-4.7-1.3-8.9-3.7-4.1-2.5-7.5-5.8-3.4-3.5-5.9-7.6-2.4-4.2-3.7-8.9-1.3-4.8-1.3-9.9zm5.4 0q0 6.6 2.5 12.4 2.5 5.8 6.8 10.1 4.4 4.3 10.2 6.8 5.8 2.5 12.4 2.5 4.3 0 8.4-1.1 4.1-1.2 7.7-3.2 3.5-2.1 6.4-5 2.9-3 5-6.5 2.1-3.5 3.2-7.5 1.2-4.1 1.2-8.5 0-6.6-2.6-12.4-2.5-5.8-6.8-10.1-4.3-4.4-10.2-6.9-5.8-2.5-12.3-2.5-4.4 0-8.5 1.2-4 1.1-7.6 3.2-3.5 2.1-6.5 5-2.8 2.9-4.9 6.4-2.1 3.5-3.2 7.7-1.2 4-1.2 8.4zm100 31h36.3q0.9 0 1.4 0.4 0.5 0.4 0.5 1.4v1.7q0 0.9-0.5 1.4-0.5 0.4-1.4 0.4h-39.9q-0.9 0-1.4-0.4-0.4-0.5-0.4-1.4v-69.2q0-0.8 0.4-1.3 0.5-0.5 1.4-0.5h1.8q0.8 0 1.3 0.5 0.5 0.4 0.5 1.3zm55.1-31q0-5.1 1.3-9.9 1.4-4.8 3.8-8.9 2.4-4.1 5.8-7.5 3.4-3.5 7.5-5.9 4.2-2.4 9-3.7 4.8-1.4 9.9-1.4 5.1 0 9.9 1.4 4.8 1.3 8.9 3.7 4.2 2.4 7.6 5.9 3.4 3.4 5.8 7.5 2.4 4.1 3.8 8.9 1.3 4.8 1.3 9.9 0 5.2-1.3 9.9-1.4 4.8-3.8 8.9-2.4 4.2-5.8 7.6-3.4 3.4-7.6 5.8-4.1 2.4-8.9 3.7-4.8 1.4-9.9 1.4-5.1 0-9.9-1.4-4.8-1.3-9-3.7-4.1-2.4-7.5-5.8-3.4-3.4-5.8-7.6-2.4-4.1-3.8-8.9-1.3-4.7-1.3-9.9zm5.5 0q0 6.6 2.5 12.4 2.5 5.8 6.8 10.1 4.3 4.3 10.1 6.8 5.8 2.5 12.4 2.5 4.4 0 8.4-1.1 4.1-1.1 7.7-3.2 3.5-2.1 6.4-5 2.9-2.9 5-6.4 2.1-3.6 3.2-7.6 1.2-4.1 1.2-8.5 0-6.5-2.5-12.3-2.5-5.8-6.9-10.2-4.3-4.3-10.1-6.8-5.8-2.6-12.4-2.6-4.4 0-8.5 1.2-4 1.1-7.6 3.2-3.5 2.1-6.4 5-2.9 2.9-5 6.5-2 3.5-3.2 7.6-1.1 4.1-1.1 8.4zm151.1 5.2q1.7 0 1.8 1.7v20.9q-0.1 1.1-0.9 1.5l-0.2 0.1q-4.7 3.8-10.7 5.9-5.9 2-12.5 2-7.7 0-14.5-2.9-6.8-2.9-11.8-8-5.1-5.1-8-11.8-2.9-6.8-2.9-14.6 0-5.1 1.3-9.8 1.3-4.8 3.7-8.9 2.5-4.2 5.9-7.6 3.4-3.4 7.5-5.9 4.2-2.4 8.9-3.7 4.8-1.4 10-1.4 3.9 0 7.5 0.8 3.7 0.8 7.1 2.2 1.1 0.5 2.7 1.3 1.5 0.7 2.9 1.7 1.4 0.9 2.4 1.8 1 0.9 1 1.7 0 0.4-0.2 1-0.1 0.6-0.4 1.1-0.3 0.5-0.8 0.9-0.4 0.4-1 0.4-0.7 0-1.3-0.5-4.2-3.3-9.1-5.1-5-1.7-10.5-1.7-4.5 0-8.7 1.2-4.1 1.1-7.7 3.3-3.6 2.1-6.5 5-2.9 3-5 6.5-2.1 3.5-3.2 7.5-1.1 4.1-1.1 8.3 0 4.4 1.1 8.5 1.2 4 3.2 7.6 2.1 3.5 5 6.4 2.9 2.9 6.4 5 3.5 2.1 7.6 3.2 4 1.1 8.3 1.1 5.2 0 9.9-1.7 4.8-1.7 9.2-4.5v-15.1h-17.7q-0.9 0-1.4-0.5-0.4-0.5-0.4-1.3v-1.8q0-1.8 1.8-1.8zm27.6 29.4v-69.3q0-0.8 0.4-1.2 0.5-0.5 1.4-0.5h1.8q0.8 0 1.3 0.5 0.5 0.4 0.5 1.2v69.3q0 1.7-1.8 1.7h-1.8q-1.8 0-1.8-1.7zm35.6-71h47.3q1.8 0 1.8 1.8v1.7q0 0.8-0.5 1.3-0.4 0.5-1.3 0.5h-43.7v36.6h35.3q0.8 0 1.3 0.4 0.5 0.5 0.5 1.4v1.8q0 0.8-0.5 1.3-0.4 0.5-1.3 0.5h-35.3v20.1h44.4q1.9 0 1.9 1.8v1.8q0 1.7-1.8 1.7h-48.4q-0.8 0-1.2-0.4-0.3-0.5-0.3-1.3v-69.3q0-1.1 0.5-1.4 0.6-0.3 1.3-0.3zm72.3 58.9q0.4-0.5 1.1-1 0.6-0.6 1.3-0.6 0.3 0 0.9 0.3 0.7 0.2 1 0.6 1.8 2.5 3.8 4.4 1.9 2 4.2 3.3 2.4 1.4 5.1 2 2.8 0.7 6.3 0.7 3.8 0 7.1-0.9 3.3-0.8 5.8-2.7 2.5-1.8 4-4.7 1.5-2.8 1.5-6.8 0-3-1.2-5.2-1.3-2.3-3.4-4-2.1-1.7-4.9-3.1-2.8-1.3-6-2.6-4.9-1.9-9.1-3.7-4.2-1.8-7.4-4.2-3.1-2.4-4.9-5.6-1.8-3.3-1.8-8 0-4.4 1.5-7.9 1.6-3.4 4.2-5.8 2.7-2.4 6.4-3.7 3.6-1.3 7.9-1.3 2.9 0 5.5 0.6 2.8 0.6 5.2 1.8 2.5 1.2 4.6 2.9 2.2 1.7 3.9 3.9 0.3 0.4 0.4 0.6 0.1 0.2 0.1 0.6 0 0.1-0.3 0.4-0.3 0.3-0.7 0.7-0.4 0.4-0.9 0.8-0.4 0.3-0.7 0.5-0.6 0.4-1 0.3-0.5-0.1-0.8-0.5-3-3.2-6.6-5.1-3.6-2-8.7-2-3.3 0-6 1-2.7 1-4.6 2.8-1.9 1.7-3 4.1-1 2.4-1 5.3 0 3.4 1.5 5.8 1.5 2.3 4.3 4.1 2.8 1.8 6.7 3.4 3.8 1.6 8.4 3.4 4 1.7 7.3 3.6 3.3 1.8 5.6 4.1 2.4 2.3 3.6 5.2 1.3 3 1.3 6.8 0 5.1-1.8 9-1.9 3.8-5.1 6.4-3.2 2.6-7.6 3.9-4.3 1.4-9.2 1.4-7.4 0-13.5-3-6-3.1-10.5-9.9-0.2-0.4-0.3-0.7-0.1-0.3-0.1-0.6 0-0.7 0.6-1.1z"/>
	<g id="Folder 1">
		<path id="top-planet" class="s2" d="m111 295.6c0 0-52.4 31.3-34.1 63 34.6 36.7 120.1-18.5 143.3-28.2 22.2-88.6 183.1-234.8 248.8-167.9 67.2 74.4-170.7 149.3-197.4 174.8-3.8 3.3-16.2 43.3 22.4 47.6 108-4.7 224.6-46.2 294.9-85.8 10.4-7.5 70.1-29.7 67.5-56.1-1.9-18.9-38-15.7-60.5-14.2-6.1 0.4-11.3 0.7-14.5 0.3-6.8-27.8-18.1-52.2-32.7-73.3-113-163-425.6-122.8-437.7 139.8z"/>
		<path id="bottom-planet" class="s3" d="m132 393.6l85.8-34.1c0 0 7.7 140.4 367.6 5.2-1.9-1-37.8 180.5-252.1 176.8-167.1-25.4-201.3-147.9-201.3-147.9z"/>
		<path id="middle-e" class="s4" d="m287 300.8c0 0 110.3-149.2 157.7-114.2 16.8 19.4-157.7 114.2-157.7 114.2z"/>
	</g>
</svg>