<svg version="1.2" xmlns="http://www.w3.org/2000/svg" viewBox="0 0 1570 477" width="1570" height="477">
	<title>ether</title>
	<style>
		.s0 { fill: #f2f2f2 } 
		.s1 { fill: #407bff } 
		.s2 { fill: #7aa3ff } 
	</style>
	<path id="ETHER" class="s0" aria-label="ETHER"  d="m678.9 106h122.7v-30h-122.7c-24.9 0-45.1 20.4-45.1 45.4v77.2c0 25 20.2 45.4 45.1 45.4h122.7v-30h-122.7c-8.4 0-15.3-7-15.3-15.4v-31.6h108v-30h-108v-15.6c0-8.4 6.9-15.4 15.3-15.4zm146.7-29.8v30h68.9v138h30v-138h68.8v-30zm330-0.2v61h-108v-61h-30v168h30v-77h108v77h30v-168zm99.4 30h122.6v-30h-122.6c-25 0-45.1 20.4-45.1 45.4v77.2c0 25 20.1 45.4 45.1 45.4h122.6v-30h-122.6c-8.4 0-15.4-7-15.4-15.4v-31.6h108v-30h-108v-15.6c0-8.4 7-15.4 15.4-15.4zm258.2 60.5c0 0 0 0 0 0 4.6-0.5 8.9-1.7 13-3.6 15.6-7.2 26.4-23.1 26.4-41.3 0-12.5-5-23.8-13.2-32.2-8.2-8.1-19.4-13.2-31.9-13.2h-106.1v168h30v-77.2h30c10.8 0 20.2 5.7 25.4 14.4l0.8 1.4 16 31.4 15.4 30h33.6l-15.4-30zm-81.8-29.2v-31h76.1c5.3 0 8.9 2.4 10.8 4.3 1.7 1.7 4.5 5.5 4.5 11.1 0 6-3.6 11.5-9.1 13.9-1.9 0.9-4.1 1.4-6.2 1.4z"/>
	<path id="TECHNOLOGIES" class="s0" aria-label="TECHNOLOGIES"  d="m659.1 370h5v-64.1h24.7v-4.5h-54.4v4.5h24.7zm59.8-4.5v-28.1h36.5v-4.4h-36.5v-27.1h40.8v-4.5h-45.8v68.6h47.3v-4.5zm101.9 5c9.7 0 18.4-3.2 24.4-9.6l-3.1-3.2c-5.9 5.7-13 8.2-21.1 8.2-17.5 0-30.8-12.9-30.8-30.2 0-17.2 13.3-30.2 30.8-30.2 8.1 0 15.2 2.4 21.1 8.2l3.1-3.3c-6-6.3-14.7-9.5-24.4-9.5-20.4 0-35.5 14.8-35.5 34.8 0 20 15.1 34.8 35.5 34.8zm104.8-69.1v31.6h-45.9v-31.6h-5v68.6h5v-32.6h45.9v32.6h5v-68.6zm92.5 0v59.6l-46.7-59.6h-4.2v68.6h5v-59.6l46.8 59.6h4.1v-68.6zm70.8 69.1c20.3 0 35.6-14.8 35.6-34.8 0-20-15.3-34.8-35.6-34.8-20.5 0-35.7 14.9-35.7 34.8 0 19.9 15.2 34.8 35.7 34.8zm0-4.6c-17.6 0-30.7-12.8-30.7-30.2 0-17.3 13.1-30.2 30.7-30.2 17.4 0 30.5 12.9 30.5 30.2 0 17.4-13.1 30.2-30.5 30.2zm65.7 4.1h44.5v-4.5h-39.5v-64.1h-5zm97.8 0.5c20.4 0 35.7-14.8 35.7-34.8 0-20-15.3-34.8-35.7-34.8-20.5 0-35.7 14.9-35.7 34.8 0 19.9 15.2 34.8 35.7 34.8zm0-4.6c-17.5 0-30.7-12.8-30.7-30.2 0-17.3 13.2-30.2 30.7-30.2 17.5 0 30.6 12.9 30.6 30.2 0 17.4-13.1 30.2-30.6 30.2zm114.8-6.3c-5.6 4.5-12.3 6.3-19.5 6.3-17.9 0-31.1-13-31.1-30.2 0-17.2 13.2-30.2 31.1-30.2 8.3 0 15.5 2.3 21.4 8.2l3.2-3.4c-6.1-6.2-14.8-9.4-24.7-9.4-20.8 0-36 14.8-36 34.8 0 20 15.2 34.8 35.9 34.8 9.4 0 18.3-2.9 24.5-8.8v-25.7h-4.8zm39.5 10.4h5v-68.6h-5zm46.6-4.5v-28.1h36.6v-4.5h-36.6v-27h40.9v-4.5h-45.9v68.6h47.3v-4.5zm91.4 5c16.9 0 24.7-8.4 24.7-18.2 0-24.8-42.8-12.7-42.8-33.3 0-7.5 5.9-13.7 19.3-13.7 6.1 0 13.1 1.9 18.8 5.8l1.8-4c-5.3-3.8-13.1-6.2-20.6-6.2-16.9 0-24.3 8.5-24.3 18.2 0 25.3 42.8 13 42.8 33.5 0 7.5-6.1 13.5-19.8 13.5-9.2 0-17.9-3.8-22.7-8.7l-2.2 3.8c5 5.5 14.8 9.3 25 9.3z"/>
	<g id="Folder 1">
		<path id="top-planet copy" class="s1" d="m8 301.5c36.6-17.1 64.9-25.8 89.3-36.3 22.2-88.6 189-237.6 254.7-170.7 67.2 74.4-170.7 149.3-197.4 174.8-3.8 3.3-16.2 43.3 22.4 47.6 108-4.7 222.8-45.3 293.1-84.9 1.3-70.1-27.9-122.8-42.5-143.9-113-162.9-459.7-75.4-419.6 213.4z"/>
		<path id="bottom-planet copy" class="s2" d="m15 325.6l85.8-34.1c0 0 7.7 140.4 367.6 5.2-1.9-1-37.8 180.5-252.1 176.8-167.1-25.4-201.3-147.9-201.3-147.9z"/>
		<path id="middle-e copy" class="s2" d="m170 232.8c0 0 110.3-149.2 157.7-114.2 16.8 19.4-157.7 114.2-157.7 114.2z"/>
	</g>
</svg>