<svg xmlns="http://www.w3.org/2000/svg" version="1.1" viewBox="-5.0 -10.0 110.0 135.0">
 <g fill="#0095DA">
  <path d="m57.766 40.68c0 4.2891-3.4766 7.7656-7.7656 7.7656s-7.7656-3.4766-7.7656-7.7656c0-4.2891 3.4766-7.7656 7.7656-7.7656s7.7656 3.4766 7.7656 7.7656"/>
  <path d="m68.633 20.156c-5.7617-5.2852-13.246-7.8203-21.082-7.1445-14.445 1.25-25.707 14.098-25.105 28.641 0.089844 2.1875 0.4375 4.3438 1.0273 6.3867 0.83594 2.9609 13.523 27.949 16.039 32.898 1.832 3.7383 5.9492 6.1562 10.484 6.1562s8.6523-2.4141 10.469-6.1211c2.4844-4.8867 14.75-29.062 15.973-32.688 0.023438-0.058594 0.042969-0.11719 0.058594-0.17969 0.71484-2.457 1.0742-5.0195 1.0742-7.625 0.003907-7.7031-3.2539-15.113-8.9375-20.324zm-18.633 33.289c-7.0391 0-12.766-5.7266-12.766-12.766 0-7.0391 5.7266-12.766 12.766-12.766s12.766 5.7266 12.766 12.766c0 7.0391-5.7266 12.766-12.766 12.766z"/>
 </g>
</svg>