<svg xmlns="http://www.w3.org/2000/svg" xmlns:xlink="http://www.w3.org/1999/xlink" viewBox="0 0 78 97.5" version="1.1" x="0px" y="0px"><title>Combined Shape</title><desc>Created with Sketch.</desc><g stroke="none" stroke-width="1" fill="none" fill-rule="evenodd"><g transform="translate(-668.000000, -222.000000)" fill="#0095DA"><path d="M668,261 C668,239.460895 685.456159,222 707,222 C728.539105,222 746,239.456159 746,261 C746,282.539105 728.543841,300 707,300 C685.460895,300 668,282.543841 668,261 Z M716.081966,265.854257 L712.858428,269.077796 C712.372758,269.563466 711.350142,269.698012 710.762919,269.356164 C710.583311,269.262975 710.432523,269.18338 710.205235,269.05364 C709.808049,268.826918 709.355225,268.546476 708.857321,268.210646 C707.418026,267.23986 705.922507,266.02661 704.453994,264.558097 C702.985402,263.089505 701.773272,261.595772 700.80437,260.159505 C700.469253,259.662738 699.649772,258.238294 699.649772,258.238294 C699.305732,257.664687 699.441076,256.646883 699.934295,256.153664 L703.157834,252.930125 C704.880026,251.207933 705.064393,248.333904 703.570076,246.412639 L697.508804,239.706691 C695.90704,237.64728 693.372895,236.8668 691.524125,238.71557 L686.683312,243.556381 C681.108034,249.13166 687.86357,263.187923 696.977691,272.302043 C706.091086,281.415438 719.881178,287.903311 725.45571,282.328779 L730.296521,277.487967 C732.144131,275.640358 731.677827,273.256035 729.615656,271.652124 L722.599453,265.442016 C720.680872,263.949786 717.804613,264.131611 716.081966,265.854257 Z"/></g></g></svg>