<svg version="1.2" xmlns="http://www.w3.org/2000/svg" viewBox="0 0 960 105" height='105' width='960'>
	<title>wave-haikei (3)-svg</title>
	<style>
		.s0 { fill: #407BFF } 
	</style>
	<path id="Layer" class="s0" d="m960 85l-26.7-6.7c-26.6-6.6-80-20-133.3-31.3-53.3-11.3-106.7-20.7-160-10.5-53.3 10.2-106.7 39.8-160 53.3-53.3 13.5-106.7 10.9-160-5.6-53.3-16.5-106.7-46.9-160-54.7-53.3-7.8-106.7 6.8-133.3 14.2l-26.7 7.3v-51h26.7c26.6 0 80 0 133.3 0 53.3 0 106.7 0 160 0 53.3 0 106.7 0 160 0 53.3 0 106.7 0 160 0 53.3 0 106.7 0 160 0 53.3 0 106.7 0 133.3 0h26.7z"/>
</svg>