<svg version="1.2" xmlns="http://www.w3.org/2000/svg" viewBox="0 0 960 140" width="960" height="140">
	<title>wave-haikei (3)-svg</title>
	<style>
		.s0 { fill: #0d0d0d } 
	</style>
	<path id="Layer" class="s0" d="m0 138l26.7-17.8c26.6-17.9 80-53.5 133.3-73.5 53.3-20 106.7-24.4 160-17.4 53.3 7 106.7 25.4 160 46 53.3 20.7 106.7 43.7 160 49 53.3 5.4 106.7-7 160-19.1 53.3-12.2 106.7-24.2 133.3-30.2l26.7-6v-69h-26.7c-26.6 0-80 0-133.3 0-53.3 0-106.7 0-160 0-53.3 0-106.7 0-160 0-53.3 0-106.7 0-160 0-53.3 0-106.7 0-160 0-53.3 0-106.7 0-133.3 0h-26.7z"/>
</svg>