<svg version="1.2" xmlns="http://www.w3.org/2000/svg" viewBox="0 0 960 115" width="960" height="115">
	<title>wave-haikei (4)-svg</title>
	<style>
		.s0 { fill: #0d0d0d } 
	</style>
	<path id="Layer" class="s0" d="m0 7l26.7 17.8c26.6 17.9 80 53.5 133.3 68.2 53.3 14.7 106.7 8.3 160-5 53.3-13.3 106.7-33.7 160-47.8 53.3-14.2 106.7-22.2 160-14.2 53.3 8 106.7 32 160 48.3 53.3 16.4 106.7 25 133.3 29.4l26.7 4.3v12h-26.7c-26.6 0-80 0-133.3 0-53.3 0-106.7 0-160 0-53.3 0-106.7 0-160 0-53.3 0-106.7 0-160 0-53.3 0-106.7 0-160 0-53.3 0-106.7 0-133.3 0h-26.7z"/>
</svg>